<?xml version="1.0" encoding="utf-8"?>
<!-- Generator: Adobe Illustrator 27.0.1, SVG Export Plug-In . SVG Version: 6.00 Build 0)  -->
<svg version="1.1" id="Layer_1" xmlns="http://www.w3.org/2000/svg" xmlns:xlink="http://www.w3.org/1999/xlink" x="0px" y="0px"
	 viewBox="0 0 181 209" style="enable-background:new 0 0 181 209;" xml:space="preserve">
<style type="text/css">
	.st0{fill:#D6DDD8;stroke:#99A5AB;stroke-width:10.6698;stroke-linecap:round;stroke-linejoin:round;stroke-miterlimit:10;}
	.st1{fill:#231F20;}
	.st2{font-family:'Courier';}
	.st3{font-size:28px;}
	.st4{fill:#FD8879;stroke:#D01C0F;stroke-miterlimit:10;}
	.st5{fill:#D0E990;stroke:#96BC14;stroke-miterlimit:10;}
	.st6{fill:#F8C37E;stroke:#EE870D;stroke-miterlimit:10;}
</style>
<g id="surface2602">
	<path class="st0" d="M6.7,152.9l83.8,48.4l83.8-48.4V56.1L90.5,7.7L6.7,56.1V152.9z"/>
	<text transform="matrix(1 0 0 1 64.4861 68.2241)" class="st1 st2 st3">CEC</text>
</g>
<circle class="st4" cx="41.7" cy="84.3" r="6.4"/>
<circle class="st4" cx="46.9" cy="106" r="6.4"/>
<circle class="st4" cx="58.6" cy="91.6" r="6.4"/>
<circle class="st4" cx="65" cy="116.1" r="6.4"/>
<circle class="st4" cx="41.7" cy="122.6" r="6.4"/>
<circle class="st4" cx="75.1" cy="102.2" r="6.4"/>
<circle class="st4" cx="28.9" cy="106" r="6.4"/>
<circle class="st5" cx="89.8" cy="137.3" r="6.4"/>
<circle class="st5" cx="112.5" cy="142" r="6.4"/>
<circle class="st5" cx="104.1" cy="126.1" r="6.4"/>
<circle class="st5" cx="101.7" cy="172.5" r="6.4"/>
<circle class="st5" cx="85.1" cy="176.7" r="6.4"/>
<circle class="st5" cx="94.7" cy="155.5" r="6.4"/>
<circle class="st5" cx="71.3" cy="141.7" r="6.4"/>
<circle class="st5" cx="74.4" cy="160.2" r="6.4"/>
<circle class="st6" cx="134.5" cy="99.2" r="6.4"/>
<circle class="st6" cx="155.5" cy="98.5" r="6.4"/>
<circle class="st6" cx="145.4" cy="136.1" r="6.4"/>
<circle class="st6" cx="142.6" cy="85.2" r="6.4"/>
<circle class="st6" cx="129.8" cy="117.8" r="6.4"/>
<circle class="st6" cx="145.4" cy="115.8" r="6.4"/>
<circle class="st6" cx="121.6" cy="87.7" r="6.4"/>
<circle class="st6" cx="117.9" cy="102.8" r="6.4"/>
<circle class="st6" cx="103.1" cy="83.8" r="6.4"/>
</svg>
